<svg width="36" height="36" viewBox="0 0 36 36" fill="none" xmlns="http://www.w3.org/2000/svg">
<g clip-path="url(#clip0_2173_1824)">
<path d="M19.5 9V18H34.4664C34.4886 17.753 34.5 17.5028 34.5 17.25C34.5 12.6937 30.8063 9 26.25 9H19.5Z" fill="#BEDCFB"/>
<path d="M1.5 6H19.5V18H34.5V27H31.5C31.5 24.5147 29.4853 22.5 27 22.5C24.5147 22.5 22.5 24.5147 22.5 27H15C15 25.8475 14.5667 24.7961 13.8542 24H16.5V9L1.5 9V6Z" fill="#E4E4E4"/>
<path d="M10.5 31.5C12.9853 31.5 15 29.4853 15 27C15 24.5147 12.9853 22.5 10.5 22.5C8.01472 22.5 6 24.5147 6 27C6 29.4853 8.01472 31.5 10.5 31.5Z" fill="#37455C"/>
<path d="M27 31.5C29.4853 31.5 31.5 29.4853 31.5 27C31.5 24.5147 29.4853 22.5 27 22.5C24.5147 22.5 22.5 24.5147 22.5 27C22.5 29.4853 24.5147 31.5 27 31.5Z" fill="#37455C"/>
<path d="M10.5 12H7.5V15L4.5 15V18H7.5V21H10.5V18H13.5V15L10.5 15V12Z" fill="#ED0C0C"/>
</g>
<defs>
<clipPath id="clip0_2173_1824">
<rect width="36" height="36" fill="white"/>
</clipPath>
</defs>
</svg>
