<svg width="36" height="36" viewBox="0 0 36 36" fill="none" xmlns="http://www.w3.org/2000/svg">
<path fill-rule="evenodd" clip-rule="evenodd" d="M4.5 21L31.5 21L31.5 3L4.5 3L4.5 21ZM9 16.5L27 16.5V13.5L9 13.5L9 16.5ZM9 10.5L27 10.5V7.5L9 7.5V10.5Z" fill="#5C6F81"/>
<path d="M22.5 21L31.5 21V33L4.5 33L4.5 21L13.5 21C13.5 23.4853 15.5147 25.5 18 25.5C20.4853 25.5 22.5 23.4853 22.5 21Z" fill="#FFB345"/>
<path d="M18 25.5C20.4853 25.5 22.5 23.4853 22.5 21L13.5 21C13.5 23.4853 15.5147 25.5 18 25.5Z" fill="#5C6F81"/>
</svg>
