<svg width="24" height="24" viewBox="0 0 24 24" fill="none" xmlns="http://www.w3.org/2000/svg">
<path fill-rule="evenodd" clip-rule="evenodd" d="M17 7H7V21H17V7ZM11 11H13V13H15V15H13V17H11V15H9V13H11V11Z" fill="#506478" fill-opacity="0.6"/>
<path d="M22 7H17V21H22V7Z" fill="#506478"/>
<path d="M7 7H2V21H7V7Z" fill="#506478"/>
<path d="M9 5.10715L9 7L7 7L7 5.10715C7 3.41002 8.34957 2 10.0624 2H13.9376C15.6504 2 17 3.41002 17 5.10715L17 7L15 7L15 5.10715C15 4.47392 14.5056 4 13.9376 4H10.0624C9.49438 4 9 4.47392 9 5.10715Z" fill="#506478" fill-opacity="0.3"/>
</svg>
