<svg width="24" height="24" viewBox="0 0 24 24" fill="none" xmlns="http://www.w3.org/2000/svg">
<path fill-rule="evenodd" clip-rule="evenodd" d="M22 7H2V21H22V7ZM14.8284 9.75736L16.2426 11.1716L9.17154 18.2426L7.75732 16.8284L14.8284 9.75736ZM11 11.5C11 12.3284 10.3285 13 9.50002 13C8.6716 13 8.00002 12.3284 8.00002 11.5C8.00002 10.6716 8.6716 10 9.50002 10C10.3285 10 11 10.6716 11 11.5ZM16 16.5C16 17.3284 15.3285 18 14.5 18C13.6716 18 13 17.3284 13 16.5C13 15.6716 13.6716 15 14.5 15C15.3285 15 16 15.6716 16 16.5Z" fill="#506478" fill-opacity="0.6"/>
<path d="M9 5.10715L9 7L7 7L7 5.10715C7 3.41002 8.34957 2 10.0624 2H13.9376C15.6504 2 17 3.41002 17 5.10715L17 7L15 7L15 5.10715C15 4.47392 14.5056 4 13.9376 4H10.0624C9.49438 4 9 4.47392 9 5.10715Z" fill="#506478" fill-opacity="0.3"/>
</svg>
