<svg width="48" height="48" viewBox="0 0 48 48" fill="none" xmlns="http://www.w3.org/2000/svg">
<path fill-rule="evenodd" clip-rule="evenodd" d="M16 15H34V31.5L30 28.5H16V15ZM17 25C17 25.5518 17.4482 26 18 26C18.5518 26 18.9988 25.5518 19 25C19 24.4482 18.5518 24 18 24C17.4482 24 17 24.4482 17 25ZM20 25C20 25.5518 20.4482 26 21 26C21.5518 26 21.9988 25.5518 22 25C22 24.4482 21.5518 24 21 24C20.4482 24 20 24.4482 20 25ZM24 26C23.4482 26 23 25.5518 23 25C23 24.4482 23.4482 24 24 24C24.5518 24 25 24.4482 25 25C24.9988 25.5518 24.5518 26 24 26Z" fill="#506478" fill-opacity="0.6"/>
<path fill-rule="evenodd" clip-rule="evenodd" d="M14 19H28V31H18L14 34V19ZM17 25C17 25.5518 17.4482 26 18 26C18.5518 26 18.9988 25.5518 19 25C19 24.4482 18.5518 24 18 24C17.4482 24 17 24.4482 17 25ZM20 25C20 25.5518 20.4482 26 21 26C21.5518 26 21.9988 25.5518 22 25C22 24.4482 21.5518 24 21 24C20.4482 24 20 24.4482 20 25ZM24 26C23.4482 26 23 25.5518 23 25C23 24.4482 23.4482 24 24 24C24.5518 24 25 24.4482 25 25C24.9988 25.5518 24.5518 26 24 26Z" fill="#506478"/>
</svg>
