<svg width="25" height="24" viewBox="0 0 25 24" fill="none" xmlns="http://www.w3.org/2000/svg">
<path d="M8.97141 12.2191C6.03958 13.4781 4 16.2565 4 19.4773V22.0001H21V19.4773C21 16.2565 18.9604 13.4781 16.0286 12.2191C15.0736 13.0187 13.843 13.5 12.5 13.5C11.157 13.5 9.92644 13.0187 8.97141 12.2191Z" fill="#06999A"/>
<path fill-rule="evenodd" clip-rule="evenodd" d="M12.5 2C9.46243 2 7 4.46243 7 7.5V8C7 11.0376 9.46243 13.5 12.5 13.5C15.5376 13.5 18 11.0376 18 8V7.5C18 4.46243 15.5376 2 12.5 2ZM12.5187 11.5C10.5722 11.5 9 9.93617 9 8H16C16 9.89894 14.4652 11.5 12.5187 11.5Z" fill="#CEDC00"/>
</svg>
