<svg width="68" height="12" viewBox="0 0 68 12" fill="none" xmlns="http://www.w3.org/2000/svg">
<path opacity="0.35" fill-rule="evenodd" clip-rule="evenodd" d="M62.3333 1.3335H45.6667C44.7462 1.3335 44 2.07969 44 3.00016V9.00016C44 9.92064 44.7462 10.6668 45.6667 10.6668H62.3333C63.2538 10.6668 64 9.92064 64 9.00016V3.00016C64 2.07969 63.2538 1.3335 62.3333 1.3335ZM45.6667 0.333496C44.1939 0.333496 43 1.5274 43 3.00016V9.00016C43 10.4729 44.1939 11.6668 45.6667 11.6668H62.3333C63.8061 11.6668 65 10.4729 65 9.00016V3.00016C65 1.5274 63.8061 0.333496 62.3333 0.333496H45.6667Z" fill="#28323C"/>
<path opacity="0.4" d="M66 4.00015V8.00015C66.8047 7.66138 67.328 6.87329 67.328 6.00015C67.328 5.12702 66.8047 4.33893 66 4.00015Z" fill="#28323C"/>
<rect x="45" y="2.3335" width="18" height="7.33333" rx="1.33333" fill="#28323C"/>
<path fill-rule="evenodd" clip-rule="evenodd" d="M30.3303 2.60789C32.5462 2.60799 34.6774 3.45943 36.2833 4.98623C36.4043 5.1041 36.5976 5.10261 36.7167 4.98289L37.8727 3.81623C37.933 3.7555 37.9666 3.67325 37.9661 3.58767C37.9656 3.50209 37.931 3.42024 37.87 3.36023C33.6549 -0.67932 27.0051 -0.67932 22.79 3.36023C22.7289 3.42019 22.6943 3.50202 22.6937 3.5876C22.6932 3.67318 22.7267 3.75546 22.787 3.81623L23.9433 4.98289C24.0624 5.10279 24.2558 5.10428 24.3767 4.98623C25.9828 3.45933 28.1142 2.60789 30.3303 2.60789ZM30.3303 6.40356C31.5478 6.40349 32.7219 6.85602 33.6243 7.67323C33.7464 7.78921 33.9387 7.7867 34.0577 7.66756L35.2123 6.5009C35.2732 6.4397 35.3069 6.35669 35.306 6.27042C35.3051 6.18416 35.2697 6.10184 35.2077 6.0419C32.4595 3.48551 28.2035 3.48551 25.4553 6.0419C25.3932 6.10184 25.3578 6.1842 25.357 6.27049C25.3562 6.35678 25.3901 6.43979 25.451 6.5009L26.6053 7.66756C26.7243 7.7867 26.9166 7.78921 27.0387 7.67323C27.9405 6.85656 29.1136 6.40407 30.3303 6.40356ZM32.6433 8.95738C32.6451 9.04389 32.6111 9.12729 32.5493 9.18789L30.552 11.2036C30.4935 11.2628 30.4136 11.2961 30.3303 11.2961C30.247 11.2961 30.1672 11.2628 30.1087 11.2036L28.111 9.18789C28.0493 9.12724 28.0153 9.04381 28.0172 8.95731C28.019 8.8708 28.0564 8.78888 28.1207 8.73089C29.3962 7.65201 31.2644 7.65201 32.54 8.73089C32.6042 8.78893 32.6416 8.87087 32.6433 8.95738Z" fill="#28323C"/>
<path fill-rule="evenodd" clip-rule="evenodd" d="M16.6666 0.666504H15.6666C15.1143 0.666504 14.6666 1.11422 14.6666 1.6665V10.3332C14.6666 10.8855 15.1143 11.3332 15.6666 11.3332H16.6666C17.2189 11.3332 17.6666 10.8855 17.6666 10.3332V1.6665C17.6666 1.11422 17.2189 0.666504 16.6666 0.666504ZM11 2.99984H12C12.5523 2.99984 13 3.44755 13 3.99984V10.3332C13 10.8855 12.5523 11.3332 12 11.3332H11C10.4477 11.3332 9.99997 10.8855 9.99997 10.3332V3.99984C9.99997 3.44755 10.4477 2.99984 11 2.99984ZM7.33328 5.33317H6.33328C5.781 5.33317 5.33328 5.78088 5.33328 6.33317V10.3332C5.33328 10.8855 5.781 11.3332 6.33328 11.3332H7.33328C7.88557 11.3332 8.33328 10.8855 8.33328 10.3332V6.33317C8.33328 5.78088 7.88557 5.33317 7.33328 5.33317ZM2.66663 7.33317H1.66663C1.11434 7.33317 0.666626 7.78088 0.666626 8.33317V10.3332C0.666626 10.8855 1.11434 11.3332 1.66663 11.3332H2.66663C3.21891 11.3332 3.66663 10.8855 3.66663 10.3332V8.33317C3.66663 7.78088 3.21891 7.33317 2.66663 7.33317Z" fill="#28323C"/>
</svg>
