<svg width="48" height="48" viewBox="0 0 48 48" fill="none" xmlns="http://www.w3.org/2000/svg">
<path fill-rule="evenodd" clip-rule="evenodd" d="M32.6607 28.9999C31.3811 31.2163 29.2559 32.9445 26.5886 33.6592C23.9213 34.3739 21.2168 33.9398 19.0005 32.6602L14.0005 41.3204C16.275 42.6336 18.786 43.486 21.39 43.8288C23.9939 44.1716 26.6399 43.9982 29.1769 43.3184C31.7138 42.6387 34.092 41.4659 36.1757 39.867C38.2594 38.2681 40.0078 36.2745 41.321 33.9999L32.6607 28.9999Z" fill="#F9C1CB"/>
<path fill-rule="evenodd" clip-rule="evenodd" d="M8.13293 36.1752C9.7318 38.2589 11.7254 40.0073 14 41.3205L19 32.6603C16.7836 31.3807 15.0554 29.2556 14.3406 26.5882C13.6259 23.9209 14.06 21.2163 15.3397 19L6.6795 14C5.36628 16.2746 4.51392 18.7855 4.1711 21.3895C3.82828 23.9935 4.00171 26.6394 4.68148 29.1764C5.36125 31.7133 6.53406 34.0915 8.13293 36.1752Z" fill="#ED0C0C"/>
<path fill-rule="evenodd" clip-rule="evenodd" d="M11.8252 8.13279C9.74152 9.73167 7.99315 11.7253 6.67993 13.9999L15.3401 18.9998C16.6197 16.7835 18.7448 15.0553 21.4122 14.3406C24.0795 13.6259 26.784 14.06 29.0004 15.3397L34.0004 6.67936C31.7259 5.36614 29.2149 4.51379 26.611 4.17097C24.007 3.82815 21.361 4.00157 18.8241 4.68135C16.2871 5.36112 13.9089 6.53392 11.8252 8.13279Z" fill="#F9C1CB"/>
<path fill-rule="evenodd" clip-rule="evenodd" d="M39.8671 11.8247C38.2682 9.74101 36.2746 7.99265 34 6.67943L29 15.3397C31.2163 16.6193 32.9445 18.7445 33.6592 21.4118C34.3739 24.0791 33.9398 26.7836 32.6602 28.9999L41.3205 33.9999C42.6337 31.7254 43.4861 29.2144 43.8289 26.6104C44.1717 24.0065 43.9983 21.3605 43.3185 18.8235C42.6388 16.2866 41.466 13.9084 39.8671 11.8247Z" fill="#ED0C0C"/>
</svg>
