<svg width="24" height="24" viewBox="0 0 24 24" fill="none" xmlns="http://www.w3.org/2000/svg">
<path fill-rule="evenodd" clip-rule="evenodd" d="M16.3303 14.4999C15.6905 15.6081 14.628 16.4722 13.2943 16.8296C11.9606 17.1869 10.6084 16.9699 9.50023 16.3301L7.00024 20.6602C8.13752 21.3168 9.393 21.743 10.695 21.9144C11.997 22.0858 13.32 21.9991 14.5884 21.6592C15.8569 21.3193 17.046 20.7329 18.0879 19.9335C19.1297 19.134 20.0039 18.1372 20.6605 17L16.3303 14.4999Z" fill="#506478" fill-opacity="0.3"/>
<path fill-rule="evenodd" clip-rule="evenodd" d="M4.06646 18.0876C4.8659 19.1295 5.86272 20.0036 7 20.6603L9.49998 16.3302C8.39179 15.6903 7.52768 14.6278 7.17032 13.2941C6.81297 11.9604 7.03002 10.6082 7.66984 9.49998L3.33975 7C2.68314 8.13728 2.25696 9.39275 2.08555 10.6947C1.91414 11.9967 2.00086 13.3197 2.34074 14.5882C2.68063 15.8567 3.26703 17.0458 4.06646 18.0876Z" fill="#506478"/>
<path fill-rule="evenodd" clip-rule="evenodd" d="M5.9126 4.0664C4.87076 4.86584 3.99657 5.86266 3.33997 6.99994L7.67006 9.49992C8.30987 8.39176 9.37242 7.52767 10.7061 7.17032C12.0398 6.81296 13.392 7.03002 14.5002 7.66984L17.0002 3.33969C15.8629 2.68308 14.6075 2.2569 13.3055 2.08549C12.0035 1.91408 10.6805 2.00079 9.41203 2.34068C8.14355 2.68057 6.95445 3.26697 5.9126 4.0664Z" fill="#506478" fill-opacity="0.3"/>
<path fill-rule="evenodd" clip-rule="evenodd" d="M19.9335 5.91236C19.1341 4.87051 18.1373 3.99633 17 3.33972L14.5 7.66987C15.6082 8.30968 16.4722 9.37223 16.8296 10.7059C17.187 12.0395 16.9699 13.3918 16.3301 14.5L20.6603 17C21.3169 15.8627 21.7431 14.6072 21.9145 13.3052C22.0859 12.0032 21.9992 10.6803 21.6593 9.41178C21.3194 8.14331 20.733 6.95421 19.9335 5.91236Z" fill="#506478" fill-opacity="0.6"/>
</svg>
