<svg width="36" height="36" viewBox="0 0 36 36" fill="none" xmlns="http://www.w3.org/2000/svg">
<g clip-path="url(#clip0_2173_1891)">
<path d="M11.25 22.3853V28.0412C11.25 29.4802 11.8712 30.8492 12.9542 31.7968C14.511 33.159 16.7469 33.4195 18.5752 32.4516L25.4522 28.8108C24.7122 28.1291 24.2012 27.2026 24.048 26.1597L17.1715 29.8002C16.4423 30.1862 15.5506 30.0823 14.9297 29.539C14.4977 29.1611 14.25 28.6151 14.25 28.0412V22.3853C13.761 22.4608 13.2601 22.5 12.75 22.5C12.2399 22.5 11.739 22.4608 11.25 22.3853Z" fill="#285082"/>
<path d="M19.5 12H6V12.75C6 13.5389 6.13535 14.2962 6.38409 15H19.1159C19.3647 14.2962 19.5 13.5389 19.5 12.75V12Z" fill="#E4E4E4"/>
<circle cx="28.5" cy="25.5" r="4.5" fill="#E65A1E"/>
<path d="M10.5 3H7.5V9H10.5V3Z" fill="#B2D3DE"/>
<path d="M18 3H15V9H18V3Z" fill="#B2D3DE"/>
<path d="M19.5 8.25C19.5 7.83579 19.1642 7.5 18.75 7.5H18V4.5H18.75C20.8211 4.5 22.5 6.17893 22.5 8.25V12.75C22.5 18.1348 18.1348 22.5 12.75 22.5C7.36522 22.5 3 18.1348 3 12.75V8.25C3 6.17893 4.67893 4.5 6.75 4.5H7.5V7.5H6.75C6.33579 7.5 6 7.83579 6 8.25L6 12.75C6 16.4779 9.02208 19.5 12.75 19.5C16.4779 19.5 19.5 16.4779 19.5 12.75V8.25Z" fill="#B2D3DE"/>
</g>
<defs>
<clipPath id="clip0_2173_1891">
<rect width="36" height="36" fill="white"/>
</clipPath>
</defs>
</svg>
