<svg width="220" height="24" viewBox="0 0 220 24" fill="none" xmlns="http://www.w3.org/2000/svg">
<g clip-path="url(#clip0_2031_1040)">
<path d="M26.1225 12.9126H31.362V8.89011H33.6944V19.7746H31.362V15.4141H26.1225V19.7746H23.7901V8.89011H26.1225V12.9126ZM80.9169 19.7408V18.5915C80.9169 18.5915 79.7338 20.045 77.638 20.045C74.9 20.045 72.0606 18.0507 72.0606 14.3324C72.0606 10.1746 75.069 8.58589 77.469 8.58589C79.5986 8.58589 80.8831 9.9718 80.8831 9.9718V8.85631H83.1479V19.7408H80.9169ZM74.3592 14.3324C74.3592 15.7521 75.4408 17.5098 77.807 17.5098C79.9028 17.5098 80.8493 16.2253 80.8493 16.2253V12.3718C80.1056 11.5605 79.0239 11.0873 77.807 11.0873C75.7789 11.0873 74.3592 12.4732 74.3592 14.3324ZM88.9282 12.9126H94.1676V8.89011H96.5V19.7746H94.1676V15.4141H88.9282V19.7746H86.5958V8.89011H88.9282V12.9126ZM111.001 19.7746H114.01V16.7662H111.001V19.7746ZM9.79577 9.16054C9.79577 11.6619 8.03803 13.8591 4.89437 13.8591H2.9338V19.7746H0.5V4.36053H4.86056C7.63239 4.36053 9.79577 6.3211 9.79577 9.16054ZM2.8662 11.3239H5.16479C5.77324 11.3239 6.28028 11.1211 6.68591 10.7493C7.09155 10.3774 7.29437 9.83659 7.29437 9.19434C7.29437 8.58589 7.09155 8.07885 6.71972 7.67321C6.34789 7.26758 5.80704 7.06476 5.19859 7.06476H2.8662V11.3239ZM54.4831 20.0788C51.8465 20.0788 48.8718 18.0845 48.8718 14.3324C48.8718 11.0535 51.3394 8.61969 54.5169 8.61969C56.7479 8.61969 58.2352 9.9718 58.5056 10.4788L57.8634 12.4056C57.8634 12.4056 56.4775 11.1211 54.8549 11.1211C52.3197 11.1211 51.238 12.8788 51.238 14.3324C51.238 16.3267 52.793 17.5774 54.8887 17.5774C56.4099 17.5774 57.7282 16.6648 58.0324 16.3267L58.7085 18.2535C58.6746 18.2535 57.1873 20.0788 54.4831 20.0788ZM66.1451 20.0788C63.5084 20.0788 60.5338 18.0845 60.5338 14.3324C60.5338 11.0535 63.0014 8.61969 66.1789 8.61969C68.4099 8.61969 69.8972 9.9718 70.1676 10.4788L69.5254 12.4056C69.5254 12.4056 68.1394 11.1211 66.5169 11.1211C63.9817 11.1211 62.9 12.8788 62.9 14.3324C62.9 16.3267 64.4549 17.5774 66.5507 17.5774C68.0718 17.5774 69.3901 16.6648 69.6944 16.3267L70.3704 18.2535C70.3704 18.2535 68.8493 20.0788 66.1451 20.0788ZM104.444 20.0788C101.807 20.0788 98.8324 18.0845 98.8324 14.3324C98.8324 11.0535 101.3 8.61969 104.477 8.61969C106.708 8.61969 108.196 9.9718 108.466 10.4788L107.824 12.4056C107.824 12.4056 106.438 11.1211 104.815 11.1211C102.28 11.1211 101.199 12.8788 101.199 14.3324C101.199 16.3267 102.754 17.5774 104.849 17.5774C106.37 17.5774 107.689 16.6648 107.993 16.3267L108.669 18.2535C108.669 18.2535 107.182 20.0788 104.444 20.0788ZM42.1451 17.7465C44.0718 17.7465 45.2211 16.6986 45.5253 16.2929L46.2014 18.1183C46.0662 18.3887 44.5113 20.1126 42.1113 20.1126C38.7648 20.1126 36.3648 17.9155 36.3648 14.4C36.3648 11.7295 38.1563 8.65349 41.807 8.65349C45.0183 8.65349 47.0127 11.2563 47.0127 14.2986C47.0127 14.6366 46.9789 14.907 46.9451 15.1436H38.731C38.8662 16.0225 39.7789 17.7465 42.1451 17.7465ZM41.7056 11.1211C39.6099 11.1211 38.8662 12.6084 38.7648 13.2507H44.6803C44.4099 12.169 43.3958 11.1211 41.7056 11.1211ZM16.3873 17.7465C18.3141 17.7465 19.4634 16.6986 19.7676 16.2929L20.4437 18.1183C20.3085 18.3887 18.7535 20.1126 16.3535 20.1126C13.007 20.1126 10.607 17.9155 10.607 14.4C10.607 11.7295 12.3986 8.65349 16.0493 8.65349C19.2606 8.65349 21.2549 11.2563 21.2549 14.2986C21.2549 14.6366 21.2211 14.907 21.1873 15.1436H13.007C13.1085 16.0225 14.0549 17.7465 16.3873 17.7465ZM15.9479 11.1211C13.8521 11.1211 13.1085 12.6084 13.007 13.2507H18.9225C18.6521 12.169 17.6718 11.1211 15.9479 11.1211Z" fill="white"/>
<path d="M119.283 15.4141L111.001 0H127.531L119.283 15.4141Z" fill="#CEDC00"/>
<path d="M138.449 13.9784C139.128 13.4389 139.544 12.622 139.544 11.6509C139.544 9.93995 138.326 8.69141 136.538 8.69141C135.305 8.69141 134.195 9.38504 133.748 10.2328L134.056 11.6355C134.657 10.834 135.459 10.2636 136.553 10.2636C137.494 10.2636 138.095 10.9264 138.095 11.7742C138.095 12.622 137.494 13.3619 136.43 13.3619H135.459V14.9341H136.399C137.802 14.9341 138.526 15.7973 138.526 16.7221C138.526 17.8474 137.771 18.5564 136.538 18.5564C135.413 18.5564 134.38 18.0478 133.656 17.015L133.255 18.3406C133.625 19.2192 134.873 20.1287 136.538 20.1287C138.511 20.1287 139.991 18.8339 139.991 16.7838C139.991 15.4428 139.374 14.4871 138.449 13.9784Z" fill="white"/>
<path d="M151.465 8.87638H145.453V9.81663C145.453 13.516 144.451 16.0285 143.08 18.3869H142.201V22.3175H143.588V19.9437H151.604V22.3175H152.991V18.3869H151.465V8.87638ZM144.775 18.3869C145.916 16.4601 146.871 13.2848 146.871 10.4332H150.016V18.3869H144.775Z" fill="white"/>
<path d="M160.872 8.69141C157.912 8.69141 155.353 11.1577 155.353 14.4254C155.353 17.6624 157.897 20.1287 160.902 20.1287C163.816 20.1287 166.39 17.6778 166.39 14.41C166.39 11.1422 163.831 8.69141 160.872 8.69141ZM160.887 10.2636C163.153 10.2636 164.926 11.99 164.926 14.41C164.926 16.8763 163.153 18.5564 160.887 18.5564C158.606 18.5564 156.818 16.8609 156.818 14.4254C156.818 12.0054 158.606 10.2636 160.887 10.2636Z" fill="white"/>
<path d="M169.363 8.87638V19.9437H170.812V15.5969H172.461C174.496 15.5969 175.93 14.2251 175.93 12.2521C175.93 10.2174 174.419 8.87638 172.446 8.87638H169.363ZM172.693 10.4332C173.725 10.4332 174.465 11.2347 174.465 12.2366C174.465 13.3002 173.695 14.0401 172.693 14.0401H170.812V10.4332H172.693Z" fill="white"/>
<path d="M183.496 8.69141C180.537 8.69141 177.978 11.1577 177.978 14.4254C177.978 17.6624 180.521 20.1287 183.527 20.1287C186.44 20.1287 189.015 17.6778 189.015 14.41C189.015 11.1422 186.456 8.69141 183.496 8.69141ZM183.512 10.2636C185.778 10.2636 187.55 11.99 187.55 14.41C187.55 16.8763 185.778 18.5564 183.512 18.5564C181.23 18.5564 179.442 16.8609 179.442 14.4254C179.442 12.0054 181.23 10.2636 183.512 10.2636Z" fill="white"/>
<path d="M191.988 8.87638V19.9437H195.333C197.306 19.9437 198.739 18.7876 198.739 16.7067C198.739 15.3503 198.107 14.4717 197.198 14.0401C197.799 13.5623 198.169 12.8995 198.169 11.9129C198.169 9.93995 196.797 8.87638 194.778 8.87638H191.988ZM195.61 15.0728C196.597 15.0728 197.275 15.8744 197.275 16.7376C197.275 17.6932 196.551 18.3869 195.626 18.3869H193.437V15.0728H195.61ZM195.132 10.4332C196.104 10.4332 196.72 11.0806 196.72 11.99C196.72 12.9303 196.057 13.516 195.132 13.516H193.437V10.4332H195.132Z" fill="white"/>
<path d="M204.953 19.9437C206.926 19.9437 208.437 18.6027 208.437 16.568C208.437 14.595 207.003 13.2231 204.969 13.2231H203.319V8.87638H201.87V19.9437H204.953ZM203.319 18.3869V14.78H205.2C206.202 14.78 206.972 15.5198 206.972 16.5834C206.972 17.5853 206.232 18.3869 205.2 18.3869H203.319Z" fill="white"/>
<path d="M211.256 19.9437H217.16V18.3869H212.705V15.0266H216.697V13.4698H212.705V10.4332H217.16V8.87638H211.256V19.9437Z" fill="white"/>
</g>
<defs>
<clipPath id="clip0_2031_1040">
<rect width="218.704" height="24" fill="white" transform="translate(0.5)"/>
</clipPath>
</defs>
</svg>
