<svg width="281" height="384" viewBox="0 0 281 384" fill="none" xmlns="http://www.w3.org/2000/svg">
<g clip-path="url(#clip0_547_2)">
<path opacity="0.2" d="M185.66 109.556H174.556V91.8889H151V127.222H139.222V121.333H121.556V150.778H98V186.202C98.6688 186.003 99.3355 185.799 100 185.591V152.778H123.556V123.333H137.222V129.222H153V93.8889H172.556V111.556H184.738C185.05 110.892 185.357 110.225 185.66 109.556Z" fill="#9BB652"/>
<path d="M194.561 71.9999C184.873 138.737 127.423 190 58 190C-18.2153 190 -80 128.215 -80 52C-80 -24.2153 -18.2153 -86 58 -86C114.923 -86 163.797 -51.5352 184.892 -2.33433C186.027 -1.47736 187.123 -0.571129 188.177 0.381187C167.63 -51.3921 117.09 -88 58 -88C-19.3199 -88 -82 -25.3199 -82 52C-82 129.32 -19.3199 192 58 192C128.529 192 186.878 139.846 196.582 71.9999L194.561 71.9999Z" fill="#E6F0FA"/>
<path d="M184.639 71.9999C176.781 78.2593 166.827 82 156 82C130.595 82 110 61.4051 110 36C110 10.5949 130.595 -10 156 -10C178.203 -10 196.732 5.7307 201.05 26.6551C201.784 26.8877 202.512 27.1388 203.233 27.4081C199.183 4.99828 179.577 -12 156 -12C129.49 -12 108 9.49033 108 36C108 62.5097 129.49 84 156 84C168.173 84 179.288 79.4683 187.75 71.9999L184.639 71.9999Z" fill="#FFD28A"/>
<path d="M257.498 52.2175C257.607 41.348 248.647 32.435 237.611 32.435C231.505 32.435 226.082 35.1573 222.422 39.4034C222.458 39.4438 222.494 39.4841 222.53 39.5246L257.498 52.2175ZM257.498 52.2175C257.498 63.087 248.647 72 237.611 72M257.498 52.2175L237.611 72M237.611 72L141.782 71.9998L237.611 72ZM221.031 40.8491L221.829 41.7522L222.57 40.801C226.041 36.3401 231.461 33.435 237.611 33.435C248.105 33.435 256.602 41.9086 256.498 52.2074V52.2175C256.498 62.5333 248.096 71 237.611 71L141.782 70.9998L140.782 70.9998H140.782L137.159 70.9995H137.159C128.728 70.9995 122.001 64.3009 122.001 56.1735H122.001L122.001 56.1633C121.918 48.0531 128.719 41.3475 137.159 41.3475C141.502 41.3475 145.387 43.1218 148.155 45.9419L149.017 46.8199L149.7 45.7969C151.286 43.4227 153.095 41.1881 155.113 39.1273C163.645 30.4133 175.214 25.5217 187.271 25.5217C199.329 25.5217 210.897 30.4133 219.429 39.1274C219.979 39.6886 220.513 40.2628 221.031 40.8491Z" stroke="#BEDCFB" stroke-width="2"/>
</g>
<defs>
<clipPath id="clip0_547_2">
<rect width="280" height="384" fill="white" transform="translate(0.5)"/>
</clipPath>
</defs>
</svg>
